<mxfile host="app.diagrams.net" modified="2020-05-22T06:03:54.869Z" agent="5.0 (Macintosh; Intel Mac OS X 10_15_3) AppleWebKit/605.1.15 (KHTML, like Gecko) Version/13.0.5 Safari/605.1.15" etag="3KGUyPLPKsedz5sTL8gG" version="13.1.1" type="github">
  <diagram name="Page-1" id="64c3da0e-402f-94eb-ee01-a36477274f13">
    <mxGraphModel dx="10700" dy="7160" grid="1" gridSize="10" guides="1" tooltips="1" connect="1" arrows="1" fold="1" page="1" pageScale="1" pageWidth="1169" pageHeight="826" background="#ffffff" math="0" shadow="0">
      <root>
        <mxCell id="0" />
        <mxCell id="1" parent="0" />
        <mxCell id="L6AUNB6nsV14biHfsw3f-245" style="edgeStyle=orthogonalEdgeStyle;rounded=0;orthogonalLoop=1;jettySize=auto;html=1;strokeWidth=5;endArrow=none;endFill=0;strokeColor=#23445D;" parent="1" source="L6AUNB6nsV14biHfsw3f-242" target="L6AUNB6nsV14biHfsw3f-235" edge="1">
          <mxGeometry relative="1" as="geometry" />
        </mxCell>
        <mxCell id="2" value="민중당" style="whiteSpace=wrap;rounded=1;shadow=1;fillColor=#10739E;strokeColor=none;fontColor=#FFFFFF;fontStyle=1;fontSize=24" parent="1" vertex="1">
          <mxGeometry x="1509" y="140" width="340" height="60" as="geometry" />
        </mxCell>
        <mxCell id="3" value="소개" style="whiteSpace=wrap;rounded=1;fillColor=#F2931E;strokeColor=none;shadow=1;fontColor=#FFFFFF;fontStyle=1;fontSize=14" parent="1" vertex="1">
          <mxGeometry x="1179" y="279.9999999999998" width="140" height="60" as="geometry" />
        </mxCell>
        <mxCell id="4" value="소식 " style="whiteSpace=wrap;rounded=1;fillColor=#F2931E;strokeColor=none;shadow=1;fontColor=#FFFFFF;fontStyle=1;fontSize=14" parent="1" vertex="1">
          <mxGeometry x="1470" y="279.9999999999998" width="140" height="60" as="geometry" />
        </mxCell>
        <mxCell id="6" value="정책 공약" style="whiteSpace=wrap;rounded=1;fillColor=#F2931E;strokeColor=none;shadow=1;fontColor=#FFFFFF;fontStyle=1;fontSize=14" parent="1" vertex="1">
          <mxGeometry x="1759" y="279.9999999999998" width="140" height="60" as="geometry" />
        </mxCell>
        <mxCell id="7" value="게시판" style="whiteSpace=wrap;rounded=1;fillColor=#F2931E;strokeColor=none;shadow=1;fontColor=#FFFFFF;fontStyle=1;fontSize=14" parent="1" vertex="1">
          <mxGeometry x="1959" y="279.9999999999998" width="140" height="60" as="geometry" />
        </mxCell>
        <mxCell id="10" value="인사말" style="whiteSpace=wrap;rounded=1;fillColor=#12AAB5;strokeColor=none;shadow=1;fontColor=#FFFFFF;" parent="1" vertex="1">
          <mxGeometry x="1189" y="410.0000000000001" width="120" height="60" as="geometry" />
        </mxCell>
        <mxCell id="23" value="강령" style="whiteSpace=wrap;rounded=1;fillColor=#12AAB5;strokeColor=none;shadow=1;fontColor=#FFFFFF;fontStyle=0" parent="1" vertex="1">
          <mxGeometry x="1189" y="510.0000000000001" width="120" height="60" as="geometry" />
        </mxCell>
        <mxCell id="24" value="당현 당규" style="whiteSpace=wrap;rounded=1;fillColor=#12AAB5;strokeColor=none;shadow=1;fontColor=#FFFFFF;fontStyle=0" parent="1" vertex="1">
          <mxGeometry x="1189" y="590.0000000000001" width="120" height="60" as="geometry" />
        </mxCell>
        <mxCell id="25" value="총선로고" style="whiteSpace=wrap;rounded=1;fillColor=#12AAB5;strokeColor=none;shadow=1;fontColor=#FFFFFF;fontStyle=0" parent="1" vertex="1">
          <mxGeometry x="1189" y="670.0000000000001" width="120" height="60" as="geometry" />
        </mxCell>
        <mxCell id="26" value="사람들" style="whiteSpace=wrap;rounded=1;fillColor=#12AAB5;strokeColor=none;shadow=1;fontColor=#FFFFFF;fontStyle=0" parent="1" vertex="1">
          <mxGeometry x="1189.0000000000002" y="750.0000000000001" width="120" height="60" as="geometry" />
        </mxCell>
        <mxCell id="27" value="" style="whiteSpace=wrap;rounded=1;fillColor=#12AAB5;strokeColor=none;shadow=1;fontColor=#FFFFFF;fontStyle=0" parent="1" vertex="1">
          <mxGeometry x="1189.0000000000005" y="830.0000000000001" width="120" height="60" as="geometry" />
        </mxCell>
        <mxCell id="43" value="공지사항" style="whiteSpace=wrap;rounded=1;fillColor=#12AAB5;strokeColor=none;shadow=1;fontColor=#FFFFFF;" parent="1" vertex="1">
          <mxGeometry x="1479.9999999999998" y="410.0000000000001" width="120" height="60" as="geometry" />
        </mxCell>
        <mxCell id="45" value="논평 브리핑" style="whiteSpace=wrap;rounded=1;fillColor=#12AAB5;strokeColor=none;shadow=1;fontColor=#FFFFFF;fontStyle=0" parent="1" vertex="1">
          <mxGeometry x="1479.9999999999998" y="510.0000000000001" width="120" height="60" as="geometry" />
        </mxCell>
        <mxCell id="46" value="대표메세지" style="whiteSpace=wrap;rounded=1;fillColor=#12AAB5;strokeColor=none;shadow=1;fontColor=#FFFFFF;fontStyle=0" parent="1" vertex="1">
          <mxGeometry x="1480" y="590.0000000000001" width="120" height="60" as="geometry" />
        </mxCell>
        <mxCell id="47" value="홍보자료" style="whiteSpace=wrap;rounded=1;fillColor=#12AAB5;strokeColor=none;shadow=1;fontColor=#FFFFFF;fontStyle=0" parent="1" vertex="1">
          <mxGeometry x="1479.9999999999998" y="670.0000000000001" width="120" height="60" as="geometry" />
        </mxCell>
        <mxCell id="103" value="" style="edgeStyle=elbowEdgeStyle;elbow=vertical;rounded=0;fontColor=#000000;endArrow=none;endFill=0;strokeWidth=8;strokeColor=#23445D;" parent="1" source="3" target="10" edge="1">
          <mxGeometry width="100" height="100" relative="1" as="geometry">
            <mxPoint x="1039" y="400" as="sourcePoint" />
            <mxPoint x="1139" y="300" as="targetPoint" />
          </mxGeometry>
        </mxCell>
        <mxCell id="105" value="" style="edgeStyle=elbowEdgeStyle;elbow=horizontal;rounded=0;fontColor=#000000;endArrow=none;endFill=0;strokeWidth=8;strokeColor=#23445D;" parent="1" source="10" target="23" edge="1">
          <mxGeometry width="100" height="100" relative="1" as="geometry">
            <mxPoint x="1129" y="590" as="sourcePoint" />
            <mxPoint x="1229" y="490" as="targetPoint" />
            <Array as="points">
              <mxPoint x="1169" y="490" />
            </Array>
          </mxGeometry>
        </mxCell>
        <mxCell id="106" value="" style="edgeStyle=elbowEdgeStyle;elbow=horizontal;rounded=0;fontColor=#000000;endArrow=none;endFill=0;strokeWidth=8;strokeColor=#23445D;" parent="1" source="10" target="24" edge="1">
          <mxGeometry width="100" height="100" relative="1" as="geometry">
            <mxPoint x="1199" y="450" as="sourcePoint" />
            <mxPoint x="1199" y="550" as="targetPoint" />
            <Array as="points">
              <mxPoint x="1169" y="510" />
            </Array>
          </mxGeometry>
        </mxCell>
        <mxCell id="107" value="" style="edgeStyle=elbowEdgeStyle;elbow=horizontal;rounded=0;fontColor=#000000;endArrow=none;endFill=0;strokeWidth=8;strokeColor=#23445D;" parent="1" source="10" target="27" edge="1">
          <mxGeometry width="100" height="100" relative="1" as="geometry">
            <mxPoint x="1199" y="450" as="sourcePoint" />
            <mxPoint x="1199" y="550" as="targetPoint" />
            <Array as="points">
              <mxPoint x="1169" y="650" />
            </Array>
          </mxGeometry>
        </mxCell>
        <mxCell id="109" value="" style="edgeStyle=elbowEdgeStyle;elbow=horizontal;rounded=0;fontColor=#000000;endArrow=none;endFill=0;strokeWidth=8;strokeColor=#23445D;" parent="1" source="10" target="26" edge="1">
          <mxGeometry width="100" height="100" relative="1" as="geometry">
            <mxPoint x="1219" y="470" as="sourcePoint" />
            <mxPoint x="1219" y="570" as="targetPoint" />
            <Array as="points">
              <mxPoint x="1169" y="520" />
            </Array>
          </mxGeometry>
        </mxCell>
        <mxCell id="110" value="" style="edgeStyle=elbowEdgeStyle;elbow=horizontal;rounded=0;fontColor=#000000;endArrow=none;endFill=0;strokeWidth=8;strokeColor=#23445D;" parent="1" source="10" target="25" edge="1">
          <mxGeometry width="100" height="100" relative="1" as="geometry">
            <mxPoint x="1229" y="480" as="sourcePoint" />
            <mxPoint x="1229" y="580" as="targetPoint" />
            <Array as="points">
              <mxPoint x="1169" y="540" />
            </Array>
          </mxGeometry>
        </mxCell>
        <mxCell id="116" value="" style="edgeStyle=elbowEdgeStyle;elbow=vertical;rounded=0;fontColor=#000000;endArrow=none;endFill=0;strokeWidth=8;strokeColor=#23445D;" parent="1" source="4" target="43" edge="1">
          <mxGeometry width="100" height="100" relative="1" as="geometry">
            <mxPoint x="1180" y="349.9999999999998" as="sourcePoint" />
            <mxPoint x="1080" y="420" as="targetPoint" />
          </mxGeometry>
        </mxCell>
        <mxCell id="118" value="" style="edgeStyle=elbowEdgeStyle;elbow=horizontal;rounded=0;fontColor=#000000;endArrow=none;endFill=0;strokeWidth=8;strokeColor=#23445D;" parent="1" source="43" target="45" edge="1">
          <mxGeometry width="100" height="100" relative="1" as="geometry">
            <mxPoint x="1460" y="440.00000000000045" as="sourcePoint" />
            <mxPoint x="1469.9999999999995" y="540" as="targetPoint" />
            <Array as="points">
              <mxPoint x="1460" y="490" />
            </Array>
          </mxGeometry>
        </mxCell>
        <mxCell id="119" value="" style="edgeStyle=elbowEdgeStyle;elbow=horizontal;rounded=0;fontColor=#000000;endArrow=none;endFill=0;strokeWidth=8;strokeColor=#23445D;" parent="1" source="43" target="46" edge="1">
          <mxGeometry width="100" height="100" relative="1" as="geometry">
            <mxPoint x="1470" y="440" as="sourcePoint" />
            <mxPoint x="1469.9999999999998" y="620" as="targetPoint" />
            <Array as="points">
              <mxPoint x="1460" y="530" />
            </Array>
          </mxGeometry>
        </mxCell>
        <mxCell id="122" value="" style="edgeStyle=elbowEdgeStyle;elbow=horizontal;rounded=0;fontColor=#000000;endArrow=none;endFill=0;strokeWidth=8;strokeColor=#23445D;" parent="1" source="43" target="47" edge="1">
          <mxGeometry width="100" height="100" relative="1" as="geometry">
            <mxPoint x="1470" y="440" as="sourcePoint" />
            <mxPoint x="1469.9999999999998" y="700" as="targetPoint" />
            <Array as="points">
              <mxPoint x="1460" y="580" />
            </Array>
          </mxGeometry>
        </mxCell>
        <mxCell id="133" value="정책 공약" style="whiteSpace=wrap;rounded=1;fillColor=#12AAB5;strokeColor=none;shadow=1;fontColor=#FFFFFF;" parent="1" vertex="1">
          <mxGeometry x="1768.9999999999998" y="410.0000000000001" width="120" height="60" as="geometry" />
        </mxCell>
        <mxCell id="135" value="정책 논평" style="whiteSpace=wrap;rounded=1;fillColor=#12AAB5;strokeColor=none;shadow=1;fontColor=#FFFFFF;fontStyle=0" parent="1" vertex="1">
          <mxGeometry x="1768.9999999999998" y="510.0000000000001" width="120" height="60" as="geometry" />
        </mxCell>
        <mxCell id="145" value="" style="edgeStyle=elbowEdgeStyle;elbow=horizontal;rounded=0;fontColor=#000000;endArrow=none;endFill=0;strokeWidth=8;strokeColor=#23445D;" parent="1" source="133" target="135" edge="1">
          <mxGeometry width="100" height="100" relative="1" as="geometry">
            <mxPoint x="1749" y="440.00000000000045" as="sourcePoint" />
            <mxPoint x="1758.9999999999995" y="540" as="targetPoint" />
            <Array as="points">
              <mxPoint x="1749" y="490" />
            </Array>
          </mxGeometry>
        </mxCell>
        <mxCell id="155" value="당원게시판" style="whiteSpace=wrap;rounded=1;fillColor=#12AAB5;strokeColor=none;shadow=1;fontColor=#FFFFFF;" parent="1" vertex="1">
          <mxGeometry x="1968.9999999999998" y="410.0000000000002" width="120" height="60" as="geometry" />
        </mxCell>
        <mxCell id="157" value="민중공천제게시판" style="whiteSpace=wrap;rounded=1;fillColor=#12AAB5;strokeColor=none;shadow=1;fontColor=#FFFFFF;fontStyle=0" parent="1" vertex="1">
          <mxGeometry x="1968.9999999999998" y="510.0000000000002" width="120" height="60" as="geometry" />
        </mxCell>
        <mxCell id="167" value="" style="edgeStyle=elbowEdgeStyle;elbow=horizontal;rounded=0;fontColor=#000000;endArrow=none;endFill=0;strokeWidth=8;strokeColor=#23445D;" parent="1" source="155" target="157" edge="1">
          <mxGeometry width="100" height="100" relative="1" as="geometry">
            <mxPoint x="1949" y="440.00000000000057" as="sourcePoint" />
            <mxPoint x="1958.9999999999995" y="540.0000000000001" as="targetPoint" />
            <Array as="points">
              <mxPoint x="1949" y="490.0000000000001" />
            </Array>
          </mxGeometry>
        </mxCell>
        <mxCell id="221" value="" style="edgeStyle=elbowEdgeStyle;elbow=vertical;rounded=0;fontColor=#000000;endArrow=none;endFill=0;strokeWidth=8;strokeColor=#23445D;" parent="1" source="6" target="133" edge="1">
          <mxGeometry width="100" height="100" relative="1" as="geometry">
            <mxPoint x="1639" y="380" as="sourcePoint" />
            <mxPoint x="1739" y="280" as="targetPoint" />
          </mxGeometry>
        </mxCell>
        <mxCell id="223" value="" style="edgeStyle=elbowEdgeStyle;elbow=vertical;rounded=0;fontColor=#000000;endArrow=none;endFill=0;strokeWidth=8;strokeColor=#23445D;" parent="1" source="7" target="155" edge="1">
          <mxGeometry width="100" height="100" relative="1" as="geometry">
            <mxPoint x="2029" y="410" as="sourcePoint" />
            <mxPoint x="1929" y="300" as="targetPoint" />
          </mxGeometry>
        </mxCell>
        <mxCell id="229" value="" style="edgeStyle=elbowEdgeStyle;elbow=vertical;rounded=0;fontColor=#000000;endArrow=none;endFill=0;strokeWidth=8;strokeColor=#23445D;" parent="1" source="2" target="3" edge="1">
          <mxGeometry width="100" height="100" relative="1" as="geometry">
            <mxPoint x="1199" y="250" as="sourcePoint" />
            <mxPoint x="1299" y="150" as="targetPoint" />
          </mxGeometry>
        </mxCell>
        <mxCell id="230" value="" style="edgeStyle=elbowEdgeStyle;elbow=vertical;rounded=0;fontColor=#000000;endArrow=none;endFill=0;strokeWidth=8;strokeColor=#23445D;" parent="1" source="2" target="4" edge="1">
          <mxGeometry width="100" height="100" relative="1" as="geometry">
            <mxPoint x="1209" y="260" as="sourcePoint" />
            <mxPoint x="1309" y="160" as="targetPoint" />
          </mxGeometry>
        </mxCell>
        <mxCell id="231" value="" style="edgeStyle=elbowEdgeStyle;elbow=vertical;rounded=0;fontColor=#000000;endArrow=none;endFill=0;strokeWidth=8;strokeColor=#23445D;" parent="1" source="2" target="6" edge="1">
          <mxGeometry width="100" height="100" relative="1" as="geometry">
            <mxPoint x="1219" y="270" as="sourcePoint" />
            <mxPoint x="1319" y="170" as="targetPoint" />
          </mxGeometry>
        </mxCell>
        <mxCell id="232" value="" style="edgeStyle=elbowEdgeStyle;elbow=vertical;rounded=0;fontColor=#000000;endArrow=none;endFill=0;strokeWidth=8;strokeColor=#23445D;" parent="1" source="2" target="7" edge="1">
          <mxGeometry width="100" height="100" relative="1" as="geometry">
            <mxPoint x="1229" y="280" as="sourcePoint" />
            <mxPoint x="1329" y="180" as="targetPoint" />
          </mxGeometry>
        </mxCell>
        <mxCell id="0ipy3alRccHPcJgjNkiX-234" value="오시는길" style="whiteSpace=wrap;rounded=1;fillColor=#12AAB5;strokeColor=none;shadow=1;fontColor=#FFFFFF;fontStyle=0" parent="1" vertex="1">
          <mxGeometry x="1189.0000000000005" y="910.0000000000001" width="120" height="60" as="geometry" />
        </mxCell>
        <mxCell id="0ipy3alRccHPcJgjNkiX-235" value="" style="edgeStyle=elbowEdgeStyle;elbow=horizontal;rounded=0;fontColor=#000000;endArrow=none;endFill=0;strokeWidth=8;strokeColor=#23445D;entryX=0;entryY=0.5;entryDx=0;entryDy=0;" parent="1" source="10" target="0ipy3alRccHPcJgjNkiX-234" edge="1">
          <mxGeometry width="100" height="100" relative="1" as="geometry">
            <mxPoint x="1209" y="440" as="sourcePoint" />
            <mxPoint x="1199.0000000000005" y="869.9999999999998" as="targetPoint" />
            <Array as="points">
              <mxPoint x="1169" y="660" />
            </Array>
          </mxGeometry>
        </mxCell>
        <mxCell id="0ipy3alRccHPcJgjNkiX-266" value="&amp;nbsp;&amp;nbsp;" style="edgeLabel;html=1;align=center;verticalAlign=middle;resizable=0;points=[];" parent="0ipy3alRccHPcJgjNkiX-235" vertex="1" connectable="0">
          <mxGeometry x="0.237" y="6" relative="1" as="geometry">
            <mxPoint as="offset" />
          </mxGeometry>
        </mxCell>
        <mxCell id="0ipy3alRccHPcJgjNkiX-237" value="당원가입" style="whiteSpace=wrap;rounded=1;fillColor=#F2931E;strokeColor=none;shadow=1;fontColor=#FFFFFF;fontStyle=1;fontSize=14" parent="1" vertex="1">
          <mxGeometry x="2480" y="169.9999999999998" width="140" height="60" as="geometry" />
        </mxCell>
        <mxCell id="0ipy3alRccHPcJgjNkiX-238" value="마이페이지" style="whiteSpace=wrap;rounded=1;fillColor=#F2931E;strokeColor=none;shadow=1;fontColor=#FFFFFF;fontStyle=1;fontSize=14" parent="1" vertex="1">
          <mxGeometry x="2670" y="169.9999999999998" width="140" height="60" as="geometry" />
        </mxCell>
        <mxCell id="0ipy3alRccHPcJgjNkiX-241" value="후원안내" style="whiteSpace=wrap;rounded=1;fillColor=#12AAB5;strokeColor=none;shadow=1;fontColor=#FFFFFF;" parent="1" vertex="1">
          <mxGeometry x="2680" y="300.0000000000002" width="120" height="60" as="geometry" />
        </mxCell>
        <mxCell id="0ipy3alRccHPcJgjNkiX-243" value="" style="edgeStyle=elbowEdgeStyle;elbow=vertical;rounded=0;fontColor=#000000;endArrow=none;endFill=0;strokeWidth=8;strokeColor=#23445D;" parent="1" source="0ipy3alRccHPcJgjNkiX-238" target="0ipy3alRccHPcJgjNkiX-241" edge="1">
          <mxGeometry width="100" height="100" relative="1" as="geometry">
            <mxPoint x="2739.17" y="229.99999999999977" as="sourcePoint" />
            <mxPoint x="2739.17" y="300.0000000000002" as="targetPoint" />
          </mxGeometry>
        </mxCell>
        <mxCell id="0ipy3alRccHPcJgjNkiX-244" value="로그인" style="whiteSpace=wrap;rounded=1;fillColor=#12AAB5;strokeColor=none;shadow=1;fontColor=#FFFFFF;" parent="1" vertex="1">
          <mxGeometry x="2490" y="300.0000000000002" width="120" height="60" as="geometry" />
        </mxCell>
        <mxCell id="0ipy3alRccHPcJgjNkiX-245" value="" style="edgeStyle=elbowEdgeStyle;elbow=vertical;rounded=0;fontColor=#000000;endArrow=none;endFill=0;strokeWidth=8;strokeColor=#23445D;" parent="1" source="0ipy3alRccHPcJgjNkiX-237" target="0ipy3alRccHPcJgjNkiX-244" edge="1">
          <mxGeometry width="100" height="100" relative="1" as="geometry">
            <mxPoint x="2550" y="229.99999999999977" as="sourcePoint" />
            <mxPoint x="2550" y="300" as="targetPoint" />
          </mxGeometry>
        </mxCell>
        <mxCell id="0ipy3alRccHPcJgjNkiX-246" value="당원가입" style="whiteSpace=wrap;rounded=1;fillColor=#12AAB5;strokeColor=none;shadow=1;fontColor=#FFFFFF;" parent="1" vertex="1">
          <mxGeometry x="2490" y="400.0000000000002" width="120" height="60" as="geometry" />
        </mxCell>
        <mxCell id="0ipy3alRccHPcJgjNkiX-247" value="정보수정" style="whiteSpace=wrap;rounded=1;fillColor=#12AAB5;strokeColor=none;shadow=1;fontColor=#FFFFFF;" parent="1" vertex="1">
          <mxGeometry x="2490" y="480.0000000000002" width="120" height="60" as="geometry" />
        </mxCell>
        <mxCell id="0ipy3alRccHPcJgjNkiX-248" value="" style="edgeStyle=elbowEdgeStyle;elbow=vertical;rounded=0;fontColor=#000000;endArrow=none;endFill=0;strokeWidth=8;strokeColor=#23445D;exitX=0.5;exitY=1;exitDx=0;exitDy=0;" parent="1" source="0ipy3alRccHPcJgjNkiX-244" target="0ipy3alRccHPcJgjNkiX-246" edge="1">
          <mxGeometry width="100" height="100" relative="1" as="geometry">
            <mxPoint x="2550" y="370" as="sourcePoint" />
            <mxPoint x="2549.66" y="365.0000000000002" as="targetPoint" />
          </mxGeometry>
        </mxCell>
        <mxCell id="0ipy3alRccHPcJgjNkiX-249" value="" style="edgeStyle=elbowEdgeStyle;elbow=vertical;rounded=0;fontColor=#000000;endArrow=none;endFill=0;strokeWidth=8;strokeColor=#23445D;" parent="1" source="0ipy3alRccHPcJgjNkiX-246" target="0ipy3alRccHPcJgjNkiX-247" edge="1">
          <mxGeometry width="100" height="100" relative="1" as="geometry">
            <mxPoint x="2550" y="460" as="sourcePoint" />
            <mxPoint x="2549.66" y="479.0000000000002" as="targetPoint" />
          </mxGeometry>
        </mxCell>
        <mxCell id="L6AUNB6nsV14biHfsw3f-235" value="메인화면" style="whiteSpace=wrap;rounded=1;fillColor=#F2931E;strokeColor=none;shadow=1;fontColor=#FFFFFF;fontStyle=1;fontSize=14" parent="1" vertex="1">
          <mxGeometry x="2290" y="169.99999999999977" width="140" height="60" as="geometry" />
        </mxCell>
        <mxCell id="L6AUNB6nsV14biHfsw3f-236" value="공지사항" style="whiteSpace=wrap;rounded=1;fillColor=#999999;strokeColor=none;shadow=1;fontColor=#FFFFFF;" parent="1" vertex="1">
          <mxGeometry x="2300" y="280.9999999999999" width="120" height="60" as="geometry" />
        </mxCell>
        <mxCell id="L6AUNB6nsV14biHfsw3f-237" value="즐겨찾는 게시판" style="whiteSpace=wrap;rounded=1;fillColor=#999999;strokeColor=none;shadow=1;fontColor=#FFFFFF;" parent="1" vertex="1">
          <mxGeometry x="2300" y="359.9999999999999" width="120" height="60" as="geometry" />
        </mxCell>
        <mxCell id="L6AUNB6nsV14biHfsw3f-238" value="주요일정" style="whiteSpace=wrap;rounded=1;fillColor=#999999;strokeColor=none;shadow=1;fontColor=#FFFFFF;" parent="1" vertex="1">
          <mxGeometry x="2300" y="439.9999999999999" width="120" height="60" as="geometry" />
        </mxCell>
        <mxCell id="L6AUNB6nsV14biHfsw3f-239" value="민중당 유튜브&#xa;최근 게시물" style="whiteSpace=wrap;rounded=1;fillColor=#999999;strokeColor=none;shadow=1;fontColor=#FFFFFF;" parent="1" vertex="1">
          <mxGeometry x="2300" y="520" width="120" height="60" as="geometry" />
        </mxCell>
        <mxCell id="L6AUNB6nsV14biHfsw3f-241" value="주요일정" style="whiteSpace=wrap;rounded=1;fillColor=#12AAB5;strokeColor=none;shadow=1;fontColor=#FFFFFF;fontStyle=0" parent="1" vertex="1">
          <mxGeometry x="1479.9999999999998" y="760.0000000000001" width="120" height="60" as="geometry" />
        </mxCell>
        <mxCell id="L6AUNB6nsV14biHfsw3f-242" value="홍보게시판&#xa;최근 게시물" style="whiteSpace=wrap;rounded=1;fillColor=#999999;strokeColor=none;shadow=1;fontColor=#FFFFFF;" parent="1" vertex="1">
          <mxGeometry x="2300" y="600" width="120" height="60" as="geometry" />
        </mxCell>
        <mxCell id="L6AUNB6nsV14biHfsw3f-248" value="&amp;nbsp; &amp;nbsp; &amp;nbsp;" style="text;html=1;align=center;verticalAlign=middle;resizable=0;points=[];autosize=1;" parent="1" vertex="1">
          <mxGeometry x="1988" y="880" width="30" height="20" as="geometry" />
        </mxCell>
      </root>
    </mxGraphModel>
  </diagram>
</mxfile>
